%TF.GenerationSoftware,KiCad,Pcbnew,(5.1.6)-1*%
%TF.CreationDate,2021-04-21T22:03:43+02:00*%
%TF.ProjectId,answertainty faceplate,616e7377-6572-4746-9169-6e7479206661,rev?*%
%TF.SameCoordinates,Original*%
%TF.FileFunction,Copper,L2,Bot*%
%TF.FilePolarity,Positive*%
%FSLAX46Y46*%
G04 Gerber Fmt 4.6, Leading zero omitted, Abs format (unit mm)*
G04 Created by KiCad (PCBNEW (5.1.6)-1) date 2021-04-21 22:03:43*
%MOMM*%
%LPD*%
G01*
G04 APERTURE LIST*
%TA.AperFunction,WasherPad*%
%ADD10C,8.000000*%
%TD*%
%TA.AperFunction,WasherPad*%
%ADD11C,7.000000*%
%TD*%
%TA.AperFunction,WasherPad*%
%ADD12O,6.800000X3.600000*%
%TD*%
%TA.AperFunction,Conductor*%
%ADD13C,0.250000*%
%TD*%
G04 APERTURE END LIST*
D10*
%TO.P,REF\u002A\u002A,*%
%TO.N,*%
X119000000Y-78220000D03*
%TD*%
D11*
%TO.P,REF\u002A\u002A,*%
%TO.N,*%
X112000000Y-122650000D03*
%TD*%
%TO.P,REF\u002A\u002A,*%
%TO.N,*%
X112000000Y-135370000D03*
%TD*%
%TO.P,REF\u002A\u002A,*%
%TO.N,*%
X112000000Y-148070000D03*
%TD*%
%TO.P,REF\u002A\u002A,*%
%TO.N,*%
X112000000Y-160770000D03*
%TD*%
D12*
%TO.P,REF\u002A\u002A,*%
%TO.N,*%
X109100000Y-53800000D03*
%TD*%
%TO.P,REF\u002A\u002A,*%
%TO.N,*%
X119260000Y-53800000D03*
%TD*%
%TO.P,REF\u002A\u002A,*%
%TO.N,*%
X119260000Y-176370000D03*
%TD*%
%TO.P,REF\u002A\u002A,*%
%TO.N,*%
X109100000Y-176370000D03*
%TD*%
D13*
%TO.N,*%
X112000000Y-160770000D02*
X112000000Y-160260000D01*
X109100000Y-176370000D02*
X108546909Y-175816909D01*
X111081142Y-158284480D02*
X110991493Y-158319486D01*
X112000000Y-160770000D02*
X112000000Y-159203338D01*
X112000000Y-159203338D02*
X111081142Y-158284480D01*
X119260000Y-74248213D02*
X119346949Y-74335162D01*
X119260000Y-82348785D02*
X119032787Y-82121572D01*
X109100000Y-53800000D02*
X119260000Y-53800000D01*
X109100000Y-53800000D02*
X109100000Y-68018875D01*
X109100000Y-68018875D02*
X116395748Y-75314623D01*
X119260000Y-53800000D02*
X119260000Y-74248213D01*
X108546909Y-88673091D02*
X116239685Y-80980316D01*
X109521699Y-158360435D02*
X109610099Y-158280451D01*
X108546909Y-159335225D02*
X109521699Y-158360435D01*
X109521699Y-145660435D02*
X109610099Y-145580451D01*
X108546909Y-175816909D02*
X108546909Y-146635225D01*
X108546909Y-146635225D02*
X109521699Y-145660435D01*
X109521699Y-132960435D02*
X109610099Y-132880451D01*
X108546909Y-133935225D02*
X109521699Y-132960435D01*
X108546909Y-175816909D02*
X108546909Y-133935225D01*
X109521699Y-120240435D02*
X109610099Y-120160451D01*
X108546909Y-121215225D02*
X109521699Y-120240435D01*
X108546909Y-175816909D02*
X108546909Y-88673091D01*
X108546909Y-175816909D02*
X108546909Y-121215225D01*
X108546909Y-175816909D02*
X108546909Y-159335225D01*
X119260000Y-176370000D02*
X109100000Y-176370000D01*
X119260000Y-176370000D02*
X119260000Y-133159683D01*
X119260000Y-158579683D02*
X112195769Y-151515452D01*
X119260000Y-145879683D02*
X112195769Y-138815452D01*
X119260000Y-176370000D02*
X119260000Y-145879683D01*
X119260000Y-176370000D02*
X119260000Y-158579683D01*
X119260000Y-176370000D02*
X119260000Y-171279683D01*
X119260000Y-171279683D02*
X112195769Y-164215452D01*
X119260000Y-176370000D02*
X119260000Y-82348785D01*
X119260000Y-133159683D02*
X112195769Y-126095452D01*
%TD*%
M02*
