%TF.GenerationSoftware,KiCad,Pcbnew,(5.1.6)-1*%
%TF.CreationDate,2021-04-21T22:03:43+02:00*%
%TF.ProjectId,answertainty faceplate,616e7377-6572-4746-9169-6e7479206661,rev?*%
%TF.SameCoordinates,Original*%
%TF.FileFunction,Legend,Top*%
%TF.FilePolarity,Positive*%
%FSLAX46Y46*%
G04 Gerber Fmt 4.6, Leading zero omitted, Abs format (unit mm)*
G04 Created by KiCad (PCBNEW (5.1.6)-1) date 2021-04-21 22:03:43*
%MOMM*%
%LPD*%
G01*
G04 APERTURE LIST*
%ADD10C,0.150000*%
%ADD11C,0.200000*%
G04 APERTURE END LIST*
D10*
X104300000Y-62090952D02*
X104300000Y-60781428D01*
X104180952Y-60543333D01*
X103942857Y-60424285D01*
X103466666Y-60424285D01*
X103228571Y-60543333D01*
X104300000Y-61971904D02*
X104061904Y-62090952D01*
X103466666Y-62090952D01*
X103228571Y-61971904D01*
X103109523Y-61733809D01*
X103109523Y-61495714D01*
X103228571Y-61257619D01*
X103466666Y-61138571D01*
X104061904Y-61138571D01*
X104300000Y-61019523D01*
X105490476Y-60424285D02*
X105490476Y-62090952D01*
X105490476Y-60662380D02*
X105609523Y-60543333D01*
X105847619Y-60424285D01*
X106204761Y-60424285D01*
X106442857Y-60543333D01*
X106561904Y-60781428D01*
X106561904Y-62090952D01*
X107633333Y-61971904D02*
X107871428Y-62090952D01*
X108347619Y-62090952D01*
X108585714Y-61971904D01*
X108704761Y-61733809D01*
X108704761Y-61614761D01*
X108585714Y-61376666D01*
X108347619Y-61257619D01*
X107990476Y-61257619D01*
X107752380Y-61138571D01*
X107633333Y-60900476D01*
X107633333Y-60781428D01*
X107752380Y-60543333D01*
X107990476Y-60424285D01*
X108347619Y-60424285D01*
X108585714Y-60543333D01*
X109538095Y-60424285D02*
X110014285Y-62090952D01*
X110490476Y-60900476D01*
X110966666Y-62090952D01*
X111442857Y-60424285D01*
X113347619Y-61971904D02*
X113109523Y-62090952D01*
X112633333Y-62090952D01*
X112395238Y-61971904D01*
X112276190Y-61733809D01*
X112276190Y-60781428D01*
X112395238Y-60543333D01*
X112633333Y-60424285D01*
X113109523Y-60424285D01*
X113347619Y-60543333D01*
X113466666Y-60781428D01*
X113466666Y-61019523D01*
X112276190Y-61257619D01*
X114538095Y-62090952D02*
X114538095Y-60424285D01*
X114538095Y-60900476D02*
X114657142Y-60662380D01*
X114776190Y-60543333D01*
X115014285Y-60424285D01*
X115252380Y-60424285D01*
X115728571Y-60424285D02*
X116680952Y-60424285D01*
X116085714Y-59590952D02*
X116085714Y-61733809D01*
X116204761Y-61971904D01*
X116442857Y-62090952D01*
X116680952Y-62090952D01*
X118585714Y-62090952D02*
X118585714Y-60781428D01*
X118466666Y-60543333D01*
X118228571Y-60424285D01*
X117752380Y-60424285D01*
X117514285Y-60543333D01*
X118585714Y-61971904D02*
X118347619Y-62090952D01*
X117752380Y-62090952D01*
X117514285Y-61971904D01*
X117395238Y-61733809D01*
X117395238Y-61495714D01*
X117514285Y-61257619D01*
X117752380Y-61138571D01*
X118347619Y-61138571D01*
X118585714Y-61019523D01*
X119776190Y-62090952D02*
X119776190Y-60424285D01*
X119776190Y-59590952D02*
X119657142Y-59710000D01*
X119776190Y-59829047D01*
X119895238Y-59710000D01*
X119776190Y-59590952D01*
X119776190Y-59829047D01*
X120966666Y-60424285D02*
X120966666Y-62090952D01*
X120966666Y-60662380D02*
X121085714Y-60543333D01*
X121323809Y-60424285D01*
X121680952Y-60424285D01*
X121919047Y-60543333D01*
X122038095Y-60781428D01*
X122038095Y-62090952D01*
X122871428Y-60424285D02*
X123823809Y-60424285D01*
X123228571Y-59590952D02*
X123228571Y-61733809D01*
X123347619Y-61971904D01*
X123585714Y-62090952D01*
X123823809Y-62090952D01*
X124419047Y-60424285D02*
X125014285Y-62090952D01*
X125609523Y-60424285D02*
X125014285Y-62090952D01*
X124776190Y-62686190D01*
X124657142Y-62805238D01*
X124419047Y-62924285D01*
D11*
X119730476Y-121650000D02*
X119540000Y-121554761D01*
X119254285Y-121554761D01*
X118968571Y-121650000D01*
X118778095Y-121840476D01*
X118682857Y-122030952D01*
X118587619Y-122411904D01*
X118587619Y-122697619D01*
X118682857Y-123078571D01*
X118778095Y-123269047D01*
X118968571Y-123459523D01*
X119254285Y-123554761D01*
X119444761Y-123554761D01*
X119730476Y-123459523D01*
X119825714Y-123364285D01*
X119825714Y-122697619D01*
X119444761Y-122697619D01*
X121540000Y-123554761D02*
X121540000Y-122507142D01*
X121444761Y-122316666D01*
X121254285Y-122221428D01*
X120873333Y-122221428D01*
X120682857Y-122316666D01*
X121540000Y-123459523D02*
X121349523Y-123554761D01*
X120873333Y-123554761D01*
X120682857Y-123459523D01*
X120587619Y-123269047D01*
X120587619Y-123078571D01*
X120682857Y-122888095D01*
X120873333Y-122792857D01*
X121349523Y-122792857D01*
X121540000Y-122697619D01*
X122206666Y-122221428D02*
X122968571Y-122221428D01*
X122492380Y-121554761D02*
X122492380Y-123269047D01*
X122587619Y-123459523D01*
X122778095Y-123554761D01*
X122968571Y-123554761D01*
X124397142Y-123459523D02*
X124206666Y-123554761D01*
X123825714Y-123554761D01*
X123635238Y-123459523D01*
X123540000Y-123269047D01*
X123540000Y-122507142D01*
X123635238Y-122316666D01*
X123825714Y-122221428D01*
X124206666Y-122221428D01*
X124397142Y-122316666D01*
X124492380Y-122507142D01*
X124492380Y-122697619D01*
X123540000Y-122888095D01*
X119540000Y-135747142D02*
X118873333Y-135747142D01*
X118873333Y-136794761D02*
X118873333Y-134794761D01*
X119825714Y-134794761D01*
X121444761Y-136794761D02*
X121444761Y-135747142D01*
X121349523Y-135556666D01*
X121159047Y-135461428D01*
X120778095Y-135461428D01*
X120587619Y-135556666D01*
X121444761Y-136699523D02*
X121254285Y-136794761D01*
X120778095Y-136794761D01*
X120587619Y-136699523D01*
X120492380Y-136509047D01*
X120492380Y-136318571D01*
X120587619Y-136128095D01*
X120778095Y-136032857D01*
X121254285Y-136032857D01*
X121444761Y-135937619D01*
X122301904Y-136699523D02*
X122492380Y-136794761D01*
X122873333Y-136794761D01*
X123063809Y-136699523D01*
X123159047Y-136509047D01*
X123159047Y-136413809D01*
X123063809Y-136223333D01*
X122873333Y-136128095D01*
X122587619Y-136128095D01*
X122397142Y-136032857D01*
X122301904Y-135842380D01*
X122301904Y-135747142D01*
X122397142Y-135556666D01*
X122587619Y-135461428D01*
X122873333Y-135461428D01*
X123063809Y-135556666D01*
X123730476Y-135461428D02*
X124492380Y-135461428D01*
X124016190Y-134794761D02*
X124016190Y-136509047D01*
X124111428Y-136699523D01*
X124301904Y-136794761D01*
X124492380Y-136794761D01*
X118492380Y-148879523D02*
X118778095Y-148974761D01*
X119254285Y-148974761D01*
X119444761Y-148879523D01*
X119540000Y-148784285D01*
X119635238Y-148593809D01*
X119635238Y-148403333D01*
X119540000Y-148212857D01*
X119444761Y-148117619D01*
X119254285Y-148022380D01*
X118873333Y-147927142D01*
X118682857Y-147831904D01*
X118587619Y-147736666D01*
X118492380Y-147546190D01*
X118492380Y-147355714D01*
X118587619Y-147165238D01*
X118682857Y-147070000D01*
X118873333Y-146974761D01*
X119349523Y-146974761D01*
X119635238Y-147070000D01*
X120778095Y-148974761D02*
X120587619Y-148879523D01*
X120492380Y-148689047D01*
X120492380Y-146974761D01*
X121825714Y-148974761D02*
X121635238Y-148879523D01*
X121540000Y-148784285D01*
X121444761Y-148593809D01*
X121444761Y-148022380D01*
X121540000Y-147831904D01*
X121635238Y-147736666D01*
X121825714Y-147641428D01*
X122111428Y-147641428D01*
X122301904Y-147736666D01*
X122397142Y-147831904D01*
X122492380Y-148022380D01*
X122492380Y-148593809D01*
X122397142Y-148784285D01*
X122301904Y-148879523D01*
X122111428Y-148974761D01*
X121825714Y-148974761D01*
X123159047Y-147641428D02*
X123540000Y-148974761D01*
X123920952Y-148022380D01*
X124301904Y-148974761D01*
X124682857Y-147641428D01*
X118492380Y-161579523D02*
X118778095Y-161674761D01*
X119254285Y-161674761D01*
X119444761Y-161579523D01*
X119540000Y-161484285D01*
X119635238Y-161293809D01*
X119635238Y-161103333D01*
X119540000Y-160912857D01*
X119444761Y-160817619D01*
X119254285Y-160722380D01*
X118873333Y-160627142D01*
X118682857Y-160531904D01*
X118587619Y-160436666D01*
X118492380Y-160246190D01*
X118492380Y-160055714D01*
X118587619Y-159865238D01*
X118682857Y-159770000D01*
X118873333Y-159674761D01*
X119349523Y-159674761D01*
X119635238Y-159770000D01*
X120778095Y-161674761D02*
X120587619Y-161579523D01*
X120492380Y-161389047D01*
X120492380Y-159674761D01*
X121825714Y-161674761D02*
X121635238Y-161579523D01*
X121540000Y-161484285D01*
X121444761Y-161293809D01*
X121444761Y-160722380D01*
X121540000Y-160531904D01*
X121635238Y-160436666D01*
X121825714Y-160341428D01*
X122111428Y-160341428D01*
X122301904Y-160436666D01*
X122397142Y-160531904D01*
X122492380Y-160722380D01*
X122492380Y-161293809D01*
X122397142Y-161484285D01*
X122301904Y-161579523D01*
X122111428Y-161674761D01*
X121825714Y-161674761D01*
X123159047Y-160341428D02*
X123540000Y-161674761D01*
X123920952Y-160722380D01*
X124301904Y-161674761D01*
X124682857Y-160341428D01*
X117285714Y-86904761D02*
X116619047Y-85952380D01*
X116142857Y-86904761D02*
X116142857Y-84904761D01*
X116904761Y-84904761D01*
X117095238Y-85000000D01*
X117190476Y-85095238D01*
X117285714Y-85285714D01*
X117285714Y-85571428D01*
X117190476Y-85761904D01*
X117095238Y-85857142D01*
X116904761Y-85952380D01*
X116142857Y-85952380D01*
X119000000Y-86904761D02*
X119000000Y-85857142D01*
X118904761Y-85666666D01*
X118714285Y-85571428D01*
X118333333Y-85571428D01*
X118142857Y-85666666D01*
X119000000Y-86809523D02*
X118809523Y-86904761D01*
X118333333Y-86904761D01*
X118142857Y-86809523D01*
X118047619Y-86619047D01*
X118047619Y-86428571D01*
X118142857Y-86238095D01*
X118333333Y-86142857D01*
X118809523Y-86142857D01*
X119000000Y-86047619D01*
X119666666Y-85571428D02*
X120428571Y-85571428D01*
X119952380Y-84904761D02*
X119952380Y-86619047D01*
X120047619Y-86809523D01*
X120238095Y-86904761D01*
X120428571Y-86904761D01*
X121857142Y-86809523D02*
X121666666Y-86904761D01*
X121285714Y-86904761D01*
X121095238Y-86809523D01*
X121000000Y-86619047D01*
X121000000Y-85857142D01*
X121095238Y-85666666D01*
X121285714Y-85571428D01*
X121666666Y-85571428D01*
X121857142Y-85666666D01*
X121952380Y-85857142D01*
X121952380Y-86047619D01*
X121000000Y-86238095D01*
%TO.C,REF\u002A\u002A*%
D10*
X110666666Y-136322380D02*
X110333333Y-135846190D01*
X110095238Y-136322380D02*
X110095238Y-135322380D01*
X110476190Y-135322380D01*
X110571428Y-135370000D01*
X110619047Y-135417619D01*
X110666666Y-135512857D01*
X110666666Y-135655714D01*
X110619047Y-135750952D01*
X110571428Y-135798571D01*
X110476190Y-135846190D01*
X110095238Y-135846190D01*
X111095238Y-135798571D02*
X111428571Y-135798571D01*
X111571428Y-136322380D02*
X111095238Y-136322380D01*
X111095238Y-135322380D01*
X111571428Y-135322380D01*
X112333333Y-135798571D02*
X112000000Y-135798571D01*
X112000000Y-136322380D02*
X112000000Y-135322380D01*
X112476190Y-135322380D01*
X113000000Y-135322380D02*
X113000000Y-135560476D01*
X112761904Y-135465238D02*
X113000000Y-135560476D01*
X113238095Y-135465238D01*
X112857142Y-135750952D02*
X113000000Y-135560476D01*
X113142857Y-135750952D01*
X113761904Y-135322380D02*
X113761904Y-135560476D01*
X113523809Y-135465238D02*
X113761904Y-135560476D01*
X114000000Y-135465238D01*
X113619047Y-135750952D02*
X113761904Y-135560476D01*
X113904761Y-135750952D01*
X110666666Y-149022380D02*
X110333333Y-148546190D01*
X110095238Y-149022380D02*
X110095238Y-148022380D01*
X110476190Y-148022380D01*
X110571428Y-148070000D01*
X110619047Y-148117619D01*
X110666666Y-148212857D01*
X110666666Y-148355714D01*
X110619047Y-148450952D01*
X110571428Y-148498571D01*
X110476190Y-148546190D01*
X110095238Y-148546190D01*
X111095238Y-148498571D02*
X111428571Y-148498571D01*
X111571428Y-149022380D02*
X111095238Y-149022380D01*
X111095238Y-148022380D01*
X111571428Y-148022380D01*
X112333333Y-148498571D02*
X112000000Y-148498571D01*
X112000000Y-149022380D02*
X112000000Y-148022380D01*
X112476190Y-148022380D01*
X113000000Y-148022380D02*
X113000000Y-148260476D01*
X112761904Y-148165238D02*
X113000000Y-148260476D01*
X113238095Y-148165238D01*
X112857142Y-148450952D02*
X113000000Y-148260476D01*
X113142857Y-148450952D01*
X113761904Y-148022380D02*
X113761904Y-148260476D01*
X113523809Y-148165238D02*
X113761904Y-148260476D01*
X114000000Y-148165238D01*
X113619047Y-148450952D02*
X113761904Y-148260476D01*
X113904761Y-148450952D01*
X110666666Y-161722380D02*
X110333333Y-161246190D01*
X110095238Y-161722380D02*
X110095238Y-160722380D01*
X110476190Y-160722380D01*
X110571428Y-160770000D01*
X110619047Y-160817619D01*
X110666666Y-160912857D01*
X110666666Y-161055714D01*
X110619047Y-161150952D01*
X110571428Y-161198571D01*
X110476190Y-161246190D01*
X110095238Y-161246190D01*
X111095238Y-161198571D02*
X111428571Y-161198571D01*
X111571428Y-161722380D02*
X111095238Y-161722380D01*
X111095238Y-160722380D01*
X111571428Y-160722380D01*
X112333333Y-161198571D02*
X112000000Y-161198571D01*
X112000000Y-161722380D02*
X112000000Y-160722380D01*
X112476190Y-160722380D01*
X113000000Y-160722380D02*
X113000000Y-160960476D01*
X112761904Y-160865238D02*
X113000000Y-160960476D01*
X113238095Y-160865238D01*
X112857142Y-161150952D02*
X113000000Y-160960476D01*
X113142857Y-161150952D01*
X113761904Y-160722380D02*
X113761904Y-160960476D01*
X113523809Y-160865238D02*
X113761904Y-160960476D01*
X114000000Y-160865238D01*
X113619047Y-161150952D02*
X113761904Y-160960476D01*
X113904761Y-161150952D01*
X107766666Y-54752380D02*
X107433333Y-54276190D01*
X107195238Y-54752380D02*
X107195238Y-53752380D01*
X107576190Y-53752380D01*
X107671428Y-53800000D01*
X107719047Y-53847619D01*
X107766666Y-53942857D01*
X107766666Y-54085714D01*
X107719047Y-54180952D01*
X107671428Y-54228571D01*
X107576190Y-54276190D01*
X107195238Y-54276190D01*
X108195238Y-54228571D02*
X108528571Y-54228571D01*
X108671428Y-54752380D02*
X108195238Y-54752380D01*
X108195238Y-53752380D01*
X108671428Y-53752380D01*
X109433333Y-54228571D02*
X109100000Y-54228571D01*
X109100000Y-54752380D02*
X109100000Y-53752380D01*
X109576190Y-53752380D01*
X110100000Y-53752380D02*
X110100000Y-53990476D01*
X109861904Y-53895238D02*
X110100000Y-53990476D01*
X110338095Y-53895238D01*
X109957142Y-54180952D02*
X110100000Y-53990476D01*
X110242857Y-54180952D01*
X110861904Y-53752380D02*
X110861904Y-53990476D01*
X110623809Y-53895238D02*
X110861904Y-53990476D01*
X111100000Y-53895238D01*
X110719047Y-54180952D02*
X110861904Y-53990476D01*
X111004761Y-54180952D01*
X117926666Y-54752380D02*
X117593333Y-54276190D01*
X117355238Y-54752380D02*
X117355238Y-53752380D01*
X117736190Y-53752380D01*
X117831428Y-53800000D01*
X117879047Y-53847619D01*
X117926666Y-53942857D01*
X117926666Y-54085714D01*
X117879047Y-54180952D01*
X117831428Y-54228571D01*
X117736190Y-54276190D01*
X117355238Y-54276190D01*
X118355238Y-54228571D02*
X118688571Y-54228571D01*
X118831428Y-54752380D02*
X118355238Y-54752380D01*
X118355238Y-53752380D01*
X118831428Y-53752380D01*
X119593333Y-54228571D02*
X119260000Y-54228571D01*
X119260000Y-54752380D02*
X119260000Y-53752380D01*
X119736190Y-53752380D01*
X120260000Y-53752380D02*
X120260000Y-53990476D01*
X120021904Y-53895238D02*
X120260000Y-53990476D01*
X120498095Y-53895238D01*
X120117142Y-54180952D02*
X120260000Y-53990476D01*
X120402857Y-54180952D01*
X121021904Y-53752380D02*
X121021904Y-53990476D01*
X120783809Y-53895238D02*
X121021904Y-53990476D01*
X121260000Y-53895238D01*
X120879047Y-54180952D02*
X121021904Y-53990476D01*
X121164761Y-54180952D01*
X117926666Y-177322380D02*
X117593333Y-176846190D01*
X117355238Y-177322380D02*
X117355238Y-176322380D01*
X117736190Y-176322380D01*
X117831428Y-176370000D01*
X117879047Y-176417619D01*
X117926666Y-176512857D01*
X117926666Y-176655714D01*
X117879047Y-176750952D01*
X117831428Y-176798571D01*
X117736190Y-176846190D01*
X117355238Y-176846190D01*
X118355238Y-176798571D02*
X118688571Y-176798571D01*
X118831428Y-177322380D02*
X118355238Y-177322380D01*
X118355238Y-176322380D01*
X118831428Y-176322380D01*
X119593333Y-176798571D02*
X119260000Y-176798571D01*
X119260000Y-177322380D02*
X119260000Y-176322380D01*
X119736190Y-176322380D01*
X120260000Y-176322380D02*
X120260000Y-176560476D01*
X120021904Y-176465238D02*
X120260000Y-176560476D01*
X120498095Y-176465238D01*
X120117142Y-176750952D02*
X120260000Y-176560476D01*
X120402857Y-176750952D01*
X121021904Y-176322380D02*
X121021904Y-176560476D01*
X120783809Y-176465238D02*
X121021904Y-176560476D01*
X121260000Y-176465238D01*
X120879047Y-176750952D02*
X121021904Y-176560476D01*
X121164761Y-176750952D01*
X107766666Y-177322380D02*
X107433333Y-176846190D01*
X107195238Y-177322380D02*
X107195238Y-176322380D01*
X107576190Y-176322380D01*
X107671428Y-176370000D01*
X107719047Y-176417619D01*
X107766666Y-176512857D01*
X107766666Y-176655714D01*
X107719047Y-176750952D01*
X107671428Y-176798571D01*
X107576190Y-176846190D01*
X107195238Y-176846190D01*
X108195238Y-176798571D02*
X108528571Y-176798571D01*
X108671428Y-177322380D02*
X108195238Y-177322380D01*
X108195238Y-176322380D01*
X108671428Y-176322380D01*
X109433333Y-176798571D02*
X109100000Y-176798571D01*
X109100000Y-177322380D02*
X109100000Y-176322380D01*
X109576190Y-176322380D01*
X110100000Y-176322380D02*
X110100000Y-176560476D01*
X109861904Y-176465238D02*
X110100000Y-176560476D01*
X110338095Y-176465238D01*
X109957142Y-176750952D02*
X110100000Y-176560476D01*
X110242857Y-176750952D01*
X110861904Y-176322380D02*
X110861904Y-176560476D01*
X110623809Y-176465238D02*
X110861904Y-176560476D01*
X111100000Y-176465238D01*
X110719047Y-176750952D02*
X110861904Y-176560476D01*
X111004761Y-176750952D01*
%TD*%
M02*
