%TF.GenerationSoftware,KiCad,Pcbnew,(5.1.6)-1*%
%TF.CreationDate,2021-04-21T22:04:27+02:00*%
%TF.ProjectId,answertainty,616e7377-6572-4746-9169-6e74792e6b69,rev?*%
%TF.SameCoordinates,Original*%
%TF.FileFunction,Copper,L1,Top*%
%TF.FilePolarity,Positive*%
%FSLAX46Y46*%
G04 Gerber Fmt 4.6, Leading zero omitted, Abs format (unit mm)*
G04 Created by KiCad (PCBNEW (5.1.6)-1) date 2021-04-21 22:04:27*
%MOMM*%
%LPD*%
G01*
G04 APERTURE LIST*
%TA.AperFunction,ComponentPad*%
%ADD10C,1.600000*%
%TD*%
%TA.AperFunction,ComponentPad*%
%ADD11O,1.400000X1.400000*%
%TD*%
%TA.AperFunction,ComponentPad*%
%ADD12C,1.400000*%
%TD*%
%TA.AperFunction,ComponentPad*%
%ADD13C,3.300000*%
%TD*%
%TA.AperFunction,ComponentPad*%
%ADD14O,1.600000X1.600000*%
%TD*%
%TA.AperFunction,ComponentPad*%
%ADD15R,1.600000X1.600000*%
%TD*%
%TA.AperFunction,ComponentPad*%
%ADD16O,1.700000X1.700000*%
%TD*%
%TA.AperFunction,ComponentPad*%
%ADD17R,1.700000X1.700000*%
%TD*%
%TA.AperFunction,ComponentPad*%
%ADD18C,2.340000*%
%TD*%
%TA.AperFunction,ComponentPad*%
%ADD19O,2.400000X1.600000*%
%TD*%
%TA.AperFunction,ComponentPad*%
%ADD20R,2.400000X1.600000*%
%TD*%
%TA.AperFunction,ViaPad*%
%ADD21C,0.800000*%
%TD*%
%TA.AperFunction,Conductor*%
%ADD22C,0.250000*%
%TD*%
G04 APERTURE END LIST*
D10*
%TO.P,C7,1*%
%TO.N,GND*%
X123190000Y-125730000D03*
%TO.P,C7,2*%
%TO.N,Net-(C5-Pad2)*%
X123190000Y-123230000D03*
%TD*%
%TO.P,C6,1*%
%TO.N,+12V*%
X140335000Y-119380000D03*
%TO.P,C6,2*%
%TO.N,GND*%
X140335000Y-116880000D03*
%TD*%
D11*
%TO.P,R7,2*%
%TO.N,Net-(R4-Pad1)*%
X121920000Y-149860000D03*
D12*
%TO.P,R7,1*%
%TO.N,Net-(R10-Pad2)*%
X121920000Y-144780000D03*
%TD*%
D13*
%TO.P,J4,T*%
%TO.N,Net-(J4-PadT)*%
X114760000Y-111560000D03*
%TO.P,J4,TN*%
%TO.N,Net-(J4-PadTN)*%
X112560000Y-116960000D03*
%TO.P,J4,S*%
%TO.N,GND*%
X101560000Y-111760000D03*
%TD*%
D14*
%TO.P,A1,16*%
%TO.N,Net-(A1-Pad16)*%
X123190000Y-67310000D03*
%TO.P,A1,15*%
%TO.N,Net-(A1-Pad15)*%
X138430000Y-67310000D03*
%TO.P,A1,30*%
%TO.N,+12V*%
X123190000Y-102870000D03*
%TO.P,A1,14*%
%TO.N,Net-(A1-Pad14)*%
X138430000Y-69850000D03*
%TO.P,A1,29*%
%TO.N,GND*%
X123190000Y-100330000D03*
%TO.P,A1,13*%
%TO.N,Net-(A1-Pad13)*%
X138430000Y-72390000D03*
%TO.P,A1,28*%
%TO.N,Net-(A1-Pad28)*%
X123190000Y-97790000D03*
%TO.P,A1,12*%
%TO.N,Net-(A1-Pad12)*%
X138430000Y-74930000D03*
%TO.P,A1,27*%
%TO.N,Net-(A1-Pad27)*%
X123190000Y-95250000D03*
%TO.P,A1,11*%
%TO.N,Net-(A1-Pad11)*%
X138430000Y-77470000D03*
%TO.P,A1,26*%
%TO.N,Net-(A1-Pad26)*%
X123190000Y-92710000D03*
%TO.P,A1,10*%
%TO.N,Net-(A1-Pad10)*%
X138430000Y-80010000D03*
%TO.P,A1,25*%
%TO.N,Net-(A1-Pad25)*%
X123190000Y-90170000D03*
%TO.P,A1,9*%
%TO.N,Net-(A1-Pad9)*%
X138430000Y-82550000D03*
%TO.P,A1,24*%
%TO.N,Net-(A1-Pad24)*%
X123190000Y-87630000D03*
%TO.P,A1,8*%
%TO.N,Net-(A1-Pad8)*%
X138430000Y-85090000D03*
%TO.P,A1,23*%
%TO.N,Net-(A1-Pad23)*%
X123190000Y-85090000D03*
%TO.P,A1,7*%
%TO.N,Net-(A1-Pad7)*%
X138430000Y-87630000D03*
%TO.P,A1,22*%
%TO.N,Net-(A1-Pad22)*%
X123190000Y-82550000D03*
%TO.P,A1,6*%
%TO.N,Net-(A1-Pad6)*%
X138430000Y-90170000D03*
%TO.P,A1,21*%
%TO.N,Net-(A1-Pad21)*%
X123190000Y-80010000D03*
%TO.P,A1,5*%
%TO.N,Net-(A1-Pad5)*%
X138430000Y-92710000D03*
%TO.P,A1,20*%
%TO.N,Net-(A1-Pad20)*%
X123190000Y-77470000D03*
%TO.P,A1,4*%
%TO.N,GND*%
X138430000Y-95250000D03*
%TO.P,A1,19*%
%TO.N,Net-(A1-Pad19)*%
X123190000Y-74930000D03*
%TO.P,A1,3*%
%TO.N,Net-(A1-Pad3)*%
X138430000Y-97790000D03*
%TO.P,A1,18*%
%TO.N,GND*%
X123190000Y-72390000D03*
%TO.P,A1,2*%
%TO.N,Net-(A1-Pad2)*%
X138430000Y-100330000D03*
%TO.P,A1,17*%
%TO.N,Net-(A1-Pad17)*%
X123190000Y-69850000D03*
D15*
%TO.P,A1,1*%
%TO.N,Net-(A1-Pad1)*%
X138430000Y-102870000D03*
%TD*%
D10*
%TO.P,C4,2*%
%TO.N,GND*%
X128270000Y-144740000D03*
D15*
%TO.P,C4,1*%
%TO.N,+12V*%
X128270000Y-142240000D03*
%TD*%
D10*
%TO.P,C5,2*%
%TO.N,Net-(C5-Pad2)*%
X128270000Y-152360000D03*
D15*
%TO.P,C5,1*%
%TO.N,GND*%
X128270000Y-149860000D03*
%TD*%
D11*
%TO.P,R15,2*%
%TO.N,Net-(R14-Pad1)*%
X115570000Y-104140000D03*
D12*
%TO.P,R15,1*%
%TO.N,Net-(A1-Pad27)*%
X110490000Y-104140000D03*
%TD*%
D11*
%TO.P,R14,2*%
%TO.N,GND*%
X110490000Y-101600000D03*
D12*
%TO.P,R14,1*%
%TO.N,Net-(R14-Pad1)*%
X115570000Y-101600000D03*
%TD*%
D11*
%TO.P,R13,2*%
%TO.N,Net-(C3-Pad1)*%
X113030000Y-93980000D03*
D12*
%TO.P,R13,1*%
%TO.N,Net-(A1-Pad8)*%
X118110000Y-93980000D03*
%TD*%
%TO.P,R12,1*%
%TO.N,Net-(A1-Pad13)*%
X118110000Y-78740000D03*
D11*
%TO.P,R12,2*%
%TO.N,Net-(C2-Pad1)*%
X113030000Y-78740000D03*
%TD*%
%TO.P,R11,2*%
%TO.N,Net-(C1-Pad1)*%
X113030000Y-86360000D03*
D12*
%TO.P,R11,1*%
%TO.N,Net-(A1-Pad9)*%
X118110000Y-86360000D03*
%TD*%
D11*
%TO.P,R10,2*%
%TO.N,Net-(R10-Pad2)*%
X118110000Y-96520000D03*
D12*
%TO.P,R10,1*%
%TO.N,Net-(C3-Pad1)*%
X113030000Y-96520000D03*
%TD*%
D11*
%TO.P,R9,2*%
%TO.N,Net-(R6-Pad1)*%
X118110000Y-81280000D03*
D12*
%TO.P,R9,1*%
%TO.N,Net-(C2-Pad1)*%
X113030000Y-81280000D03*
%TD*%
D11*
%TO.P,R8,2*%
%TO.N,Net-(R5-Pad1)*%
X118110000Y-88900000D03*
D12*
%TO.P,R8,1*%
%TO.N,Net-(C1-Pad1)*%
X113030000Y-88900000D03*
%TD*%
D11*
%TO.P,R6,2*%
%TO.N,Net-(R2-Pad1)*%
X116840000Y-120650000D03*
D12*
%TO.P,R6,1*%
%TO.N,Net-(R6-Pad1)*%
X121920000Y-120650000D03*
%TD*%
D11*
%TO.P,R5,2*%
%TO.N,Net-(R1-Pad1)*%
X124460000Y-134620000D03*
D12*
%TO.P,R5,1*%
%TO.N,Net-(R5-Pad1)*%
X129540000Y-134620000D03*
%TD*%
D11*
%TO.P,R4,2*%
%TO.N,Net-(J1-PadT)*%
X116840000Y-153670000D03*
D12*
%TO.P,R4,1*%
%TO.N,Net-(R4-Pad1)*%
X121920000Y-153670000D03*
%TD*%
D11*
%TO.P,R3,2*%
%TO.N,Net-(J4-PadT)*%
X116840000Y-115570000D03*
D12*
%TO.P,R3,1*%
%TO.N,Net-(R3-Pad1)*%
X121920000Y-115570000D03*
%TD*%
D11*
%TO.P,R2,2*%
%TO.N,Net-(J2-PadT)*%
X116840000Y-128270000D03*
D12*
%TO.P,R2,1*%
%TO.N,Net-(R2-Pad1)*%
X121920000Y-128270000D03*
%TD*%
D11*
%TO.P,R1,2*%
%TO.N,Net-(J3-PadT)*%
X116840000Y-140970000D03*
D12*
%TO.P,R1,1*%
%TO.N,Net-(R1-Pad1)*%
X121920000Y-140970000D03*
%TD*%
D16*
%TO.P,J5,10*%
%TO.N,+12V*%
X135890000Y-142240000D03*
%TO.P,J5,9*%
X138430000Y-142240000D03*
%TO.P,J5,8*%
%TO.N,GND*%
X135890000Y-144780000D03*
%TO.P,J5,7*%
X138430000Y-144780000D03*
%TO.P,J5,6*%
X135890000Y-147320000D03*
%TO.P,J5,5*%
X138430000Y-147320000D03*
%TO.P,J5,4*%
X135890000Y-149860000D03*
%TO.P,J5,3*%
X138430000Y-149860000D03*
%TO.P,J5,2*%
%TO.N,Net-(C5-Pad2)*%
X135890000Y-152400000D03*
D17*
%TO.P,J5,1*%
X138430000Y-152400000D03*
%TD*%
D13*
%TO.P,J1,S*%
%TO.N,GND*%
X101560000Y-149860000D03*
%TO.P,J1,TN*%
%TO.N,Net-(J1-PadTN)*%
X112560000Y-155060000D03*
%TO.P,J1,T*%
%TO.N,Net-(J1-PadT)*%
X114760000Y-149660000D03*
%TD*%
D18*
%TO.P,RV1,1*%
%TO.N,GND*%
X102870000Y-62230000D03*
%TO.P,RV1,2*%
%TO.N,Net-(A1-Pad19)*%
X102870000Y-67230000D03*
%TO.P,RV1,3*%
%TO.N,Net-(A1-Pad27)*%
X102870000Y-72230000D03*
%TD*%
D13*
%TO.P,J3,T*%
%TO.N,Net-(J3-PadT)*%
X114760000Y-136960000D03*
%TO.P,J3,TN*%
%TO.N,Net-(J3-PadTN)*%
X112560000Y-142360000D03*
%TO.P,J3,S*%
%TO.N,GND*%
X101560000Y-137160000D03*
%TD*%
%TO.P,J2,T*%
%TO.N,Net-(J2-PadT)*%
X114760000Y-124260000D03*
%TO.P,J2,TN*%
%TO.N,Net-(J2-PadTN)*%
X112560000Y-129660000D03*
%TO.P,J2,S*%
%TO.N,GND*%
X101560000Y-124460000D03*
%TD*%
D19*
%TO.P,U1,14*%
%TO.N,Net-(R3-Pad1)*%
X127000000Y-127000000D03*
%TO.P,U1,7*%
%TO.N,Net-(R1-Pad1)*%
X134620000Y-111760000D03*
%TO.P,U1,13*%
%TO.N,Net-(R3-Pad1)*%
X127000000Y-124460000D03*
%TO.P,U1,6*%
%TO.N,Net-(R5-Pad1)*%
X134620000Y-114300000D03*
%TO.P,U1,12*%
%TO.N,Net-(A1-Pad5)*%
X127000000Y-121920000D03*
%TO.P,U1,5*%
%TO.N,Net-(R14-Pad1)*%
X134620000Y-116840000D03*
%TO.P,U1,11*%
%TO.N,Net-(C5-Pad2)*%
X127000000Y-119380000D03*
%TO.P,U1,4*%
%TO.N,+12V*%
X134620000Y-119380000D03*
%TO.P,U1,10*%
%TO.N,Net-(R14-Pad1)*%
X127000000Y-116840000D03*
%TO.P,U1,3*%
X134620000Y-121920000D03*
%TO.P,U1,9*%
%TO.N,Net-(R6-Pad1)*%
X127000000Y-114300000D03*
%TO.P,U1,2*%
%TO.N,Net-(R10-Pad2)*%
X134620000Y-124460000D03*
%TO.P,U1,8*%
%TO.N,Net-(R2-Pad1)*%
X127000000Y-111760000D03*
D20*
%TO.P,U1,1*%
%TO.N,Net-(R4-Pad1)*%
X134620000Y-127000000D03*
%TD*%
D15*
%TO.P,C3,1*%
%TO.N,Net-(C3-Pad1)*%
X107950000Y-96520000D03*
D10*
%TO.P,C3,2*%
%TO.N,GND*%
X105450000Y-96520000D03*
%TD*%
D15*
%TO.P,C2,1*%
%TO.N,Net-(C2-Pad1)*%
X107950000Y-81280000D03*
D10*
%TO.P,C2,2*%
%TO.N,GND*%
X105450000Y-81280000D03*
%TD*%
D15*
%TO.P,C1,1*%
%TO.N,Net-(C1-Pad1)*%
X107950000Y-88900000D03*
D10*
%TO.P,C1,2*%
%TO.N,GND*%
X105450000Y-88900000D03*
%TD*%
D21*
%TO.N,+12V*%
X133350000Y-105410000D03*
%TO.N,GND*%
X132080000Y-96520000D03*
%TO.N,Net-(A1-Pad27)*%
X110490000Y-104140000D03*
%TD*%
D22*
%TO.N,+12V*%
X132080000Y-142240000D02*
X135890000Y-142240000D01*
X132080000Y-142240000D02*
X137160000Y-137160000D01*
X137160000Y-137160000D02*
X137160000Y-121920000D01*
X137160000Y-109220000D02*
X133350000Y-105410000D01*
X132080000Y-142240000D02*
X128270000Y-142240000D01*
X134620000Y-119380000D02*
X137160000Y-119380000D01*
X137160000Y-121920000D02*
X137160000Y-119380000D01*
X137160000Y-119380000D02*
X137160000Y-109220000D01*
X140335000Y-119380000D02*
X137160000Y-119380000D01*
%TO.N,GND*%
X111760000Y-100330000D02*
X123190000Y-100330000D01*
X110490000Y-101600000D02*
X111760000Y-100330000D01*
X123190000Y-100330000D02*
X128270000Y-100330000D01*
X128270000Y-100330000D02*
X132080000Y-96520000D01*
X128270000Y-149860000D02*
X135890000Y-149860000D01*
X135850000Y-144740000D02*
X135890000Y-144780000D01*
X128270000Y-144740000D02*
X135850000Y-144740000D01*
%TO.N,Net-(A1-Pad13)*%
X132080000Y-78740000D02*
X138430000Y-72390000D01*
X118110000Y-78740000D02*
X132080000Y-78740000D01*
%TO.N,Net-(A1-Pad27)*%
X102870000Y-72230000D02*
X101600000Y-73500000D01*
X101600000Y-73500000D02*
X101600000Y-99060000D01*
X110490000Y-104140000D02*
X106680000Y-104140000D01*
X106680000Y-104140000D02*
X101600000Y-99060000D01*
X107950000Y-101600000D02*
X110490000Y-104140000D01*
X107950000Y-100330000D02*
X107950000Y-101600000D01*
X109220000Y-99060000D02*
X107950000Y-100330000D01*
X123190000Y-95250000D02*
X119380000Y-99060000D01*
X119380000Y-99060000D02*
X109220000Y-99060000D01*
%TO.N,Net-(A1-Pad9)*%
X134620000Y-86360000D02*
X138430000Y-82550000D01*
X118110000Y-86360000D02*
X134620000Y-86360000D01*
%TO.N,Net-(A1-Pad8)*%
X129540000Y-93980000D02*
X138430000Y-85090000D01*
X118110000Y-93980000D02*
X129540000Y-93980000D01*
%TO.N,Net-(A1-Pad5)*%
X130810000Y-118110000D02*
X127000000Y-121920000D01*
X138430000Y-92710000D02*
X130810000Y-100330000D01*
X130810000Y-100330000D02*
X130810000Y-118110000D01*
%TO.N,Net-(A1-Pad19)*%
X110570000Y-74930000D02*
X102870000Y-67230000D01*
X123190000Y-74930000D02*
X110570000Y-74930000D01*
%TO.N,Net-(C1-Pad1)*%
X113030000Y-88900000D02*
X107950000Y-88900000D01*
%TO.N,Net-(C2-Pad1)*%
X107950000Y-81280000D02*
X113030000Y-81280000D01*
%TO.N,Net-(C3-Pad1)*%
X107950000Y-96520000D02*
X113030000Y-96520000D01*
%TO.N,Net-(J2-PadT)*%
X116840000Y-126340000D02*
X114760000Y-124260000D01*
X116840000Y-128270000D02*
X116840000Y-126340000D01*
%TO.N,Net-(J3-PadT)*%
X116840000Y-139040000D02*
X114760000Y-136960000D01*
X116840000Y-140970000D02*
X116840000Y-139040000D01*
%TO.N,Net-(J4-PadT)*%
X116840000Y-113640000D02*
X114760000Y-111560000D01*
X116840000Y-115570000D02*
X116840000Y-113640000D01*
%TO.N,Net-(R10-Pad2)*%
X121920000Y-143757002D02*
X121920000Y-144780000D01*
X132980020Y-132696982D02*
X121920000Y-143757002D01*
X132980020Y-126099980D02*
X132980020Y-132696982D01*
X134620000Y-124460000D02*
X132980020Y-126099980D01*
%TO.N,Net-(J1-PadT)*%
X116840000Y-151740000D02*
X114760000Y-149660000D01*
X116840000Y-153670000D02*
X116840000Y-151740000D01*
%TO.N,Net-(R1-Pad1)*%
X121920000Y-137160000D02*
X124460000Y-134620000D01*
X121920000Y-140970000D02*
X121920000Y-137160000D01*
X124460000Y-134620000D02*
X124460000Y-133350000D01*
X124460000Y-133350000D02*
X132080000Y-125730000D01*
X132080000Y-114300000D02*
X134620000Y-111760000D01*
X132080000Y-125730000D02*
X132080000Y-114300000D01*
%TO.N,Net-(R2-Pad1)*%
X127000000Y-112007002D02*
X127000000Y-111760000D01*
X118357002Y-120650000D02*
X127000000Y-112007002D01*
X116840000Y-120650000D02*
X118357002Y-120650000D01*
X121920000Y-125730000D02*
X116840000Y-120650000D01*
X121920000Y-128270000D02*
X121920000Y-125730000D01*
%TO.N,Net-(R4-Pad1)*%
X121920000Y-149860000D02*
X121920000Y-153670000D01*
X124460000Y-147320000D02*
X121920000Y-149860000D01*
X132080000Y-139700000D02*
X127000000Y-139700000D01*
X134620000Y-137160000D02*
X132080000Y-139700000D01*
X127000000Y-139700000D02*
X124460000Y-142240000D01*
X134620000Y-127000000D02*
X134620000Y-137160000D01*
X124460000Y-142240000D02*
X124460000Y-147320000D01*
%TO.N,Net-(R5-Pad1)*%
X132530010Y-116389990D02*
X134620000Y-114300000D01*
X132530010Y-131629990D02*
X132530010Y-116389990D01*
X129540000Y-134620000D02*
X132530010Y-131629990D01*
%TO.N,Net-(R6-Pad1)*%
X121920000Y-119380000D02*
X127000000Y-114300000D01*
X121920000Y-120650000D02*
X121920000Y-119380000D01*
%TO.N,Net-(R14-Pad1)*%
X115570000Y-104140000D02*
X115570000Y-101600000D01*
X133094990Y-120394990D02*
X134620000Y-121920000D01*
X133094990Y-118365010D02*
X133094990Y-120394990D01*
X134620000Y-116840000D02*
X133094990Y-118365010D01*
%TO.N,Net-(C5-Pad2)*%
X127000000Y-119420000D02*
X127000000Y-119380000D01*
X123190000Y-123230000D02*
X127000000Y-119420000D01*
%TD*%
M02*
