M48
; DRILL file {KiCad (5.1.6)-1} date 04/21/21 22:04:26
; FORMAT={-:-/ absolute / inch / decimal}
; #@! TF.CreationDate,2021-04-21T22:04:26+02:00
; #@! TF.GenerationSoftware,Kicad,Pcbnew,(5.1.6)-1
FMAT,2
INCH
T1C0.0157
T2C0.0276
T3C0.0315
T4C0.0394
T5C0.0512
T6C0.0906
%
G90
G05
T1
X4.35Y-4.1
X5.2Y-3.8
X5.25Y-4.15
T2
X4.6Y-5.05
X4.8Y-5.05
X4.45Y-3.7
X4.65Y-3.7
X4.45Y-3.5
X4.65Y-3.5
X4.45Y-3.8
X4.65Y-3.8
X4.35Y-4.0
X4.55Y-4.0
X4.6Y-4.55
X4.8Y-4.55
X4.35Y-4.1
X4.55Y-4.1
X4.8Y-5.7
X4.8Y-5.9
X4.45Y-3.2
X4.65Y-3.2
X4.45Y-3.4
X4.65Y-3.4
X4.6Y-4.75
X4.8Y-4.75
X4.9Y-5.3
X5.1Y-5.3
X4.45Y-3.1
X4.65Y-3.1
X4.6Y-6.05
X4.8Y-6.05
X4.6Y-5.55
X4.8Y-5.55
T3
X4.1516Y-3.2
X4.25Y-3.2
X4.1516Y-3.8
X4.25Y-3.8
X5.525Y-4.6016
X5.525Y-4.7
X5.05Y-5.9
X5.05Y-5.9984
X4.1516Y-3.5
X4.25Y-3.5
X5.05Y-5.6
X5.05Y-5.6984
X5.0Y-4.4
X5.0Y-4.5
X5.0Y-4.6
X5.0Y-4.7
X5.0Y-4.8
X5.0Y-4.9
X5.0Y-5.0
X5.3Y-4.4
X5.3Y-4.5
X5.3Y-4.6
X5.3Y-4.7
X5.3Y-4.8
X5.3Y-4.9
X5.3Y-5.0
X4.85Y-4.8516
X4.85Y-4.95
T4
X5.35Y-5.6
X5.35Y-5.7
X5.35Y-5.8
X5.35Y-5.9
X5.35Y-6.0
X5.45Y-5.6
X5.45Y-5.7
X5.45Y-5.8
X5.45Y-5.9
X5.45Y-6.0
X4.85Y-2.65
X4.85Y-2.75
X4.85Y-2.85
X4.85Y-2.95
X4.85Y-3.05
X4.85Y-3.15
X4.85Y-3.25
X4.85Y-3.35
X4.85Y-3.45
X4.85Y-3.55
X4.85Y-3.65
X4.85Y-3.75
X4.85Y-3.85
X4.85Y-3.95
X4.85Y-4.05
X5.45Y-2.65
X5.45Y-2.75
X5.45Y-2.85
X5.45Y-2.95
X5.45Y-3.05
X5.45Y-3.15
X5.45Y-3.25
X5.45Y-3.35
X5.45Y-3.45
X5.45Y-3.55
X5.45Y-3.65
X5.45Y-3.75
X5.45Y-3.85
X5.45Y-3.95
X5.45Y-4.05
T5
X4.05Y-2.45
X4.05Y-2.6469
X4.05Y-2.8437
T6
X3.9984Y-4.9
X4.4315Y-5.1047
X4.5181Y-4.8921
X3.9984Y-4.4
X4.4315Y-4.6047
X4.5181Y-4.3921
X3.9984Y-5.4
X4.4315Y-5.6047
X4.5181Y-5.3921
X3.9984Y-5.9
X4.4315Y-6.1047
X4.5181Y-5.8921
T0
M30
